<!-- FT-1323 candidate: the chair as the toolbar family would draw it.
     Geometry: Font Awesome Free 5 'chair' (CC BY 4.0, fontawesome.com —
     already shipped by this app via @fortawesome/free-solid-svg-icons; the
     loved toolbar marks — quill, hourglass, paper plane, scroll, cog — ARE
     this set, so this chair is literally their sibling). Front-facing,
     symmetric (the face-the-clock flip stays a no-op). Solid mass, crisp
     edges, splayed thick legs; the three back spindles are thin slits, not
     windows — they read as texture at 28px, not letterforms. Single bone
     tone carried in-file, swappable-art pattern. -->
<svg xmlns="http://www.w3.org/2000/svg" viewBox="0 0 448 512">
  <path fill="#cfc4ae" d="M112 128c0-29.5 16.2-55 40-68.9V256h48V48h48v208h48V59.1c23.8 13.9 40 39.4 40 68.9v128h48V128C384 57.3 326.7 0 256 0h-64C121.3 0 64 57.3 64 128v128h48zm334.3 213.9l-10.7-32c-4.4-13.1-16.6-21.9-30.4-21.9H42.7c-13.8 0-26 8.8-30.4 21.9l-10.7 32C-5.2 362.6 10.2 384 32 384v112c0 8.8 7.2 16 16 16h32c8.8 0 16-7.2 16-16V384h256v112c0 8.8 7.2 16 16 16h32c8.8 0 16-7.2 16-16V384c21.8 0 37.2-21.4 30.3-42.1z"/>
</svg>
